<?xml version="1.0" standalone="no"?>
<!DOCTYPE svg PUBLIC "-//W3C//DTD SVG 20010904//EN"
 "http://www.w3.org/TR/2001/REC-SVG-20010904/DTD/svg10.dtd">
<svg version="1.0" xmlns="http://www.w3.org/2000/svg"
 width="532.000000pt" height="532.000000pt" viewBox="0 0 532.000000 532.000000"
 preserveAspectRatio="xMidYMid meet">
<metadata>
Created by potrace 1.14, written by Peter Selinger 2001-2017
</metadata>
<g transform="translate(0.000000,532.000000) scale(0.100000,-0.100000)"
fill="#000000" stroke="none">
<path d="M2581 5294 c-12 -15 -21 -33 -21 -40 0 -8 -4 -14 -10 -14 -5 0 -9 3
-9 8 4 22 -3 33 -18 30 -14 -3 -17 -21 -19 -128 -6 -208 -11 -304 -19 -322
-14 -35 -26 -5 -24 60 1 37 1 123 0 192 -1 69 0 135 3 148 7 32 -3 52 -25 52
-28 0 -37 -33 -32 -115 2 -38 6 -135 8 -215 2 -80 7 -205 10 -277 4 -107 3
-133 -8 -133 -10 0 -13 21 -13 83 -1 45 -3 125 -6 177 -3 52 -9 163 -13 245
-7 160 -17 208 -44 203 -13 -3 -16 -15 -15 -58 3 -92 25 -413 29 -420 2 -3 6
-62 10 -130 4 -69 10 -143 15 -165 11 -59 12 -123 2 -129 -12 -7 -36 48 -29
66 2 7 0 21 -5 31 -9 17 -19 102 -38 302 -4 50 -11 104 -14 120 -3 17 -7 64
-10 105 -3 41 -8 84 -10 95 -2 11 -7 47 -11 80 -8 65 -19 87 -41 78 -17 -6
-19 -100 -4 -184 5 -30 12 -83 15 -119 4 -36 10 -83 15 -105 5 -22 10 -53 10
-69 0 -46 -20 -18 -26 35 -2 24 -11 76 -19 114 -8 39 -17 90 -20 115 -24 207
-37 247 -69 215 -18 -18 -16 -97 3 -147 10 -27 21 -87 26 -148 2 -19 10 -64
20 -98 9 -35 18 -80 20 -100 2 -21 9 -52 14 -69 5 -18 7 -33 3 -33 -15 0 -66
159 -73 225 -4 39 -10 79 -12 90 -24 92 -37 154 -37 178 0 15 -7 42 -16 58
-20 40 -47 35 -55 -11 -4 -19 -7 -27 -8 -18 -3 39 -65 66 -77 34 -3 -8 8 -58
26 -112 17 -53 30 -108 28 -123 -3 -24 -6 -22 -30 25 -15 29 -35 83 -44 120
-19 78 -29 94 -54 94 -29 0 -66 -54 -97 -140 -15 -44 -31 -80 -35 -80 -4 0
-10 12 -13 28 -14 69 -53 108 -81 81 -14 -15 -14 -20 6 -59 12 -23 46 -103 76
-176 30 -74 65 -157 80 -185 30 -59 27 -88 -3 -38 -38 60 -120 232 -148 307
-28 76 -55 103 -80 82 -11 -10 -12 -17 0 -50 7 -21 25 -56 39 -78 13 -22 36
-66 50 -98 14 -33 58 -125 99 -206 44 -86 71 -151 67 -158 -4 -7 -12 -10 -18
-6 -12 7 -57 91 -67 126 -14 51 -209 432 -222 437 -8 3 -21 -1 -30 -10 -14
-13 -14 -19 -1 -44 26 -51 115 -217 150 -278 31 -55 47 -86 99 -200 10 -22 30
-57 44 -77 14 -21 21 -38 16 -38 -14 0 -93 133 -182 305 -148 287 -177 331
-198 296 -13 -21 -3 -59 24 -95 21 -28 114 -192 218 -386 22 -41 64 -116 93
-165 30 -50 54 -99 54 -110 0 -12 -3 -15 -9 -9 -18 18 -115 180 -156 259 -23
44 -82 150 -131 236 -50 85 -93 163 -97 172 -4 10 -18 23 -32 29 -22 10 -28 9
-36 -3 -14 -22 -27 4 113 -224 30 -49 72 -121 93 -160 32 -59 116 -202 174
-295 l15 -25 -28 25 c-35 31 -203 267 -238 335 -31 60 -150 261 -173 292 -24
34 -70 56 -84 40 -7 -10 -4 -22 13 -48 72 -105 160 -248 187 -301 17 -34 37
-68 45 -76 19 -19 94 -129 94 -138 0 -19 -50 42 -117 141 -40 61 -107 155
-148 210 -41 55 -74 106 -75 113 0 18 -42 32 -57 20 -7 -6 -13 -19 -13 -29 0
-14 -7 -19 -25 -19 -41 0 -31 -34 41 -132 102 -139 70 -125 -63 28 l-43 48
-20 -21 c-18 -20 -22 -21 -49 -7 -17 8 -46 18 -65 21 -27 4 -36 1 -45 -15 -8
-16 -5 -33 19 -86 36 -79 36 -81 6 -61 -21 14 -24 14 -36 0 -10 -12 -10 -19
-2 -27 20 -20 13 -28 -14 -18 -51 20 -63 -25 -14 -54 17 -9 56 -45 88 -78 31
-34 117 -121 190 -195 72 -74 132 -137 132 -140 0 -5 -99 75 -110 88 -8 10
-48 29 -59 29 -38 0 45 -91 167 -184 64 -49 98 -83 90 -91 -3 -3 -30 15 -59
41 -66 56 -95 72 -110 57 -18 -18 5 -47 85 -104 69 -49 98 -79 77 -79 -4 0
-19 9 -32 21 -13 12 -68 52 -122 90 -53 38 -141 100 -195 138 -53 38 -134 104
-179 145 -84 78 -147 116 -165 98 -17 -17 1 -48 40 -70 21 -11 50 -32 65 -46
15 -14 60 -52 100 -83 40 -31 77 -62 82 -69 6 -6 72 -53 147 -103 137 -93 172
-121 149 -121 -13 0 -53 19 -61 29 -13 15 -84 63 -180 121 -125 74 -228 147
-292 206 -49 45 -84 56 -95 28 -10 -26 105 -123 259 -219 43 -27 63 -55 39
-55 -18 0 -137 72 -182 110 -86 72 -138 95 -155 68 -9 -15 94 -100 194 -159
39 -23 41 -35 5 -36 -16 -1 -43 -7 -61 -14 -30 -12 -37 -11 -95 19 -34 18 -74
40 -88 49 -28 17 -59 12 -59 -10 0 -7 18 -23 40 -36 75 -42 21 -47 -77 -6 -48
19 -90 14 -95 -13 -7 -31 26 -104 70 -153 23 -26 42 -50 42 -53 0 -4 -12 -5
-27 -4 -20 2 -28 -2 -31 -15 -4 -20 75 -60 243 -121 213 -78 207 -84 -15 -18
-74 22 -161 50 -192 61 -57 21 -88 20 -88 -4 0 -7 6 -17 13 -23 18 -15 197
-79 237 -86 19 -2 69 -16 110 -29 143 -46 221 -61 231 -46 12 19 -7 37 -55 51
-22 6 -45 16 -51 21 -6 6 -3 7 10 3 11 -3 42 -10 68 -16 27 -6 65 -18 85 -27
l37 -17 -28 -4 c-56 -7 -36 -61 23 -62 14 0 32 -5 40 -10 58 -38 -219 30 -494
121 -115 38 -218 69 -228 69 -12 0 -18 -7 -18 -24 0 -26 -2 -25 150 -74 108
-35 174 -61 168 -67 -2 -2 -66 12 -143 32 -77 20 -151 36 -164 37 -29 1 -51
-28 -34 -45 11 -11 422 -116 563 -144 41 -8 96 -21 121 -29 26 -8 70 -17 99
-20 28 -3 59 -10 68 -16 12 -6 4 -8 -28 -4 -25 3 -52 7 -60 9 -8 2 -37 7 -65
10 -91 11 -109 14 -215 38 -58 14 -136 30 -175 37 -38 7 -113 24 -165 37 -52
13 -104 26 -115 28 -62 14 -76 -42 -15 -61 53 -17 500 -109 575 -119 80 -9
115 -17 120 -25 11 -17 -29 -19 -103 -5 -43 8 -96 15 -118 14 -21 -1 -55 6
-74 14 -19 8 -62 18 -95 21 -33 4 -103 16 -155 27 -52 11 -112 24 -132 28 -44
10 -73 -5 -63 -31 7 -19 13 -21 100 -39 33 -7 65 -14 70 -15 73 -17 216 -37
270 -39 35 0 73 -8 90 -18 l30 -16 -40 -1 c-22 0 -67 4 -100 10 -91 14 -124
19 -196 25 -37 3 -80 10 -96 14 -34 10 -65 -3 -57 -23 7 -18 47 -34 104 -41
25 -3 65 -8 90 -11 107 -14 120 -17 106 -31 -10 -11 -110 -7 -226 7 -116 15
-164 11 -168 -12 -5 -28 40 -42 147 -47 29 -2 -4 -19 -89 -46 -119 -39 -170
-64 -170 -84 0 -21 19 -41 39 -41 9 0 33 -5 53 -11 30 -8 38 -15 38 -33 0 -18
8 -27 33 -36 43 -16 190 -22 225 -9 27 11 142 -6 142 -20 0 -4 -84 -6 -188 -5
-103 0 -192 -3 -198 -8 -12 -9 -8 -47 5 -49 30 -5 105 -4 144 2 29 5 74 3 116
-5 38 -7 109 -13 159 -12 58 1 88 -2 81 -9 -5 -5 -60 -10 -122 -12 -160 -5
-370 -11 -384 -12 -16 -1 -17 -37 -2 -46 9 -6 147 -8 274 -4 22 1 60 0 85 -1
43 -3 42 -3 -20 -11 -36 -5 -123 -10 -193 -12 -105 -3 -131 -6 -145 -21 -16
-16 -16 -18 2 -32 27 -20 60 -21 226 -10 58 4 121 9 140 12 62 9 103 13 205
19 96 7 123 3 60 -9 -16 -3 -41 -7 -55 -10 -14 -2 -61 -7 -105 -10 -44 -3 -96
-8 -115 -11 -19 -2 -57 -7 -85 -10 -27 -3 -72 -8 -100 -11 -27 -3 -54 -8 -59
-12 -5 -3 -34 -6 -63 -7 -98 -4 -114 -63 -22 -76 24 -3 34 -7 22 -7 -24 -2
-37 -30 -27 -56 8 -20 54 -21 115 -3 24 8 77 15 118 16 40 1 85 7 98 12 14 5
29 7 34 3 19 -12 -2 -21 -55 -23 -31 -1 -79 -10 -108 -20 -29 -9 -75 -19 -103
-20 -56 -3 -69 -10 -63 -37 5 -27 68 -29 169 -5 156 36 201 43 196 28 -4 -13
-104 -45 -167 -52 -25 -3 -56 -7 -70 -10 -14 -3 -39 -7 -57 -10 -55 -9 -83
-24 -83 -43 0 -38 37 -40 154 -10 116 29 146 33 146 21 0 -5 -48 -21 -108 -38
-106 -30 -114 -31 -131 -34 -5 0 -13 -11 -16 -22 -14 -43 41 -46 137 -8 27 10
51 19 53 19 10 0 5 -30 -5 -31 -15 -2 -20 -3 -83 -22 -50 -16 -58 -21 -55 -40
2 -14 11 -23 26 -25 26 -4 29 -20 4 -28 -9 -3 -36 -14 -60 -25 -90 -40 -30
-81 130 -89 5 0 -1 -9 -12 -20 -22 -22 -17 -50 10 -50 10 0 48 15 84 34 36 19
66 31 66 28 0 -4 -31 -23 -68 -42 -73 -38 -83 -47 -75 -66 8 -23 35 -25 72 -6
179 94 226 121 296 171 123 88 215 137 215 113 0 -9 -226 -164 -280 -192 -14
-7 -62 -37 -107 -66 -45 -30 -88 -54 -96 -54 -8 0 -22 -9 -33 -21 -14 -15 -16
-24 -8 -37 18 -28 48 -25 100 12 27 19 76 51 109 72 33 21 85 56 115 79 30 23
69 47 87 53 29 10 66 34 242 157 58 41 108 59 99 36 -1 -6 -84 -62 -183 -127
-99 -64 -229 -149 -290 -189 -60 -39 -129 -82 -152 -95 -43 -24 -57 -55 -29
-66 19 -7 126 51 279 154 70 47 130 83 133 80 2 -3 -17 -19 -43 -37 -26 -17
-66 -47 -88 -66 -41 -36 -109 -83 -209 -143 -60 -37 -74 -58 -52 -80 12 -12
22 -10 73 17 33 18 108 69 167 114 127 97 256 187 268 187 19 0 6 -19 -30 -42
-20 -14 -55 -42 -77 -62 -54 -50 -213 -169 -278 -208 -96 -57 -123 -96 -81
-112 21 -8 39 2 193 112 74 53 160 122 190 154 31 32 62 58 70 58 8 0 -22 -38
-68 -83 -46 -46 -86 -89 -89 -94 -4 -6 -24 -22 -45 -36 -21 -14 -63 -47 -93
-73 -30 -27 -64 -54 -75 -62 -23 -16 -24 -26 -3 -46 12 -13 20 -14 37 -5 28
15 118 91 175 147 24 23 47 40 53 37 14 -9 13 -10 -53 -63 -35 -27 -85 -70
-112 -95 -42 -39 -47 -49 -36 -62 18 -21 27 -19 72 16 45 37 59 33 30 -9 -33
-46 -92 -181 -85 -197 10 -28 68 -18 113 20 23 19 91 72 151 117 60 45 109 86
109 90 0 4 5 8 10 8 29 0 -6 -45 -147 -187 -61 -61 -70 -84 -38 -97 19 -7 114
80 172 158 26 34 76 93 113 131 36 39 79 88 96 110 52 70 90 114 119 135 11 8
6 -1 -11 -20 -17 -19 -45 -58 -62 -85 -17 -28 -40 -60 -51 -72 -11 -12 -55
-63 -98 -115 -42 -51 -109 -124 -149 -163 -87 -85 -104 -113 -79 -131 15 -11
23 -9 51 13 19 14 34 28 34 32 0 3 13 20 28 36 15 17 52 59 82 95 30 35 63 73
73 85 10 11 60 74 110 139 51 66 100 128 110 139 11 10 29 34 42 52 26 39 156
175 167 175 11 0 -110 -165 -207 -285 -45 -55 -113 -139 -151 -186 -70 -88
-165 -196 -241 -276 -45 -46 -56 -86 -27 -97 9 -4 24 -1 32 6 28 22 98 101
139 155 21 28 51 61 65 73 15 11 50 52 78 91 28 39 70 90 93 113 44 45 66 74
167 217 61 87 100 131 100 112 0 -6 -15 -30 -33 -54 -19 -24 -40 -55 -47 -69
-24 -46 -194 -284 -275 -385 -44 -55 -96 -123 -117 -150 -20 -28 -51 -63 -68
-80 -45 -43 -53 -61 -35 -79 22 -22 52 -5 95 52 19 26 37 49 40 52 20 19 117
150 166 225 73 111 104 148 104 122 0 -26 -52 -122 -110 -202 -27 -38 -69 -99
-93 -135 -24 -36 -60 -84 -80 -108 -35 -41 -39 -65 -13 -75 7 -3 19 -2 25 3
13 7 87 112 204 287 34 51 65 89 69 85 4 -4 10 -25 13 -47 3 -22 9 -53 12 -70
4 -16 6 -39 4 -50 -3 -23 -114 -246 -142 -287 -25 -35 -25 -78 -1 -78 22 0 42
21 71 75 12 22 19 31 16 20 -2 -11 -9 -42 -14 -70 -6 -27 -15 -65 -20 -84 -14
-44 -5 -75 24 -91 19 -10 27 -9 49 5 14 10 26 21 26 26 0 11 125 165 170 208
32 32 35 33 38 13 2 -11 -6 -38 -17 -60 -11 -22 -22 -51 -25 -65 -5 -28 13
-50 30 -39 18 12 75 145 80 187 3 22 16 72 29 110 37 107 65 210 65 236 1 29
38 112 39 86 1 -19 -41 -183 -66 -257 -8 -25 -19 -61 -23 -80 -4 -19 -24 -91
-44 -160 -41 -143 -45 -180 -17 -180 29 0 41 22 62 112 42 180 166 638 176
648 10 10 -11 -106 -22 -125 -17 -27 -33 -82 -39 -130 -2 -22 -11 -67 -19
-100 -9 -33 -23 -94 -31 -135 -9 -41 -29 -115 -45 -163 -27 -82 -27 -89 -12
-108 29 -36 50 -5 83 127 16 65 32 142 34 169 3 28 18 109 34 180 16 72 27
143 26 158 -2 15 1 30 5 33 5 3 20 43 34 89 15 47 31 85 37 85 5 0 8 -7 5 -15
-21 -54 -87 -369 -113 -535 -3 -25 -15 -62 -25 -82 -11 -21 -21 -68 -24 -109
-3 -39 -8 -75 -11 -81 -7 -11 14 -38 30 -38 16 0 65 102 72 148 3 20 12 73 19
117 8 44 16 98 19 120 2 22 23 130 45 240 35 174 47 237 50 268 1 4 6 7 12 7
5 0 8 -4 5 -9 -3 -4 -7 -35 -10 -67 -2 -32 -8 -88 -11 -122 -7 -59 -6 -64 11
-60 10 2 20 10 21 18 8 62 15 90 23 85 9 -5 5 -59 -10 -140 -5 -27 -11 -86
-14 -130 -3 -44 -7 -96 -10 -115 -3 -19 -10 -81 -16 -137 -5 -56 -18 -133 -29
-171 -13 -46 -16 -74 -9 -85 12 -22 35 -22 47 2 15 27 43 230 56 401 13 166
16 180 36 136 9 -20 9 -38 1 -78 -6 -29 -14 -98 -17 -153 -2 -55 -7 -111 -9
-125 -13 -73 -20 -149 -17 -187 1 -28 37 -32 45 -5 12 38 27 198 25 268 -2 82
5 101 21 59 7 -19 7 -39 -1 -67 -15 -56 -16 -245 -2 -259 17 -17 31 17 34 79
3 57 14 58 23 2 3 -19 12 -59 21 -87 13 -42 21 -54 41 -59 36 -9 73 29 79 81
9 76 16 105 25 105 6 0 10 -20 10 -44 0 -47 12 -65 33 -47 14 11 21 54 19 111
-2 57 3 255 6 289 4 30 16 -1 18 -47 1 -26 6 -92 10 -147 7 -105 7 -124 3
-193 -3 -50 21 -86 43 -64 18 18 14 288 -6 402 -11 65 -17 250 -7 250 10 0 17
-49 26 -184 3 -44 8 -82 10 -85 2 -4 6 -44 9 -91 18 -252 24 -285 51 -285 17
0 20 8 22 60 1 33 2 69 2 79 2 36 13 8 16 -38 3 -65 22 -105 45 -99 36 10 38
90 5 276 -8 49 -18 107 -20 130 -3 23 -7 58 -10 77 -3 19 -7 73 -10 120 -3 47
-6 92 -7 100 -7 89 17 63 26 -29 4 -35 14 -93 22 -129 8 -36 24 -137 34 -226
30 -251 36 -276 63 -276 32 0 33 21 10 173 -12 83 -30 188 -39 232 -9 44 -17
88 -19 98 -2 9 -6 20 -9 25 -2 4 -5 32 -7 62 -1 30 -5 62 -9 70 -4 8 -10 39
-14 68 -3 30 -13 66 -21 82 -8 16 -11 31 -7 34 17 10 41 -52 52 -134 6 -47 20
-103 32 -125 11 -22 24 -65 29 -95 4 -30 13 -86 19 -125 6 -38 13 -81 15 -95
2 -14 6 -50 9 -80 3 -30 10 -79 16 -109 5 -29 10 -56 10 -58 0 -2 10 -3 23 -1
20 3 22 9 23 58 1 47 -33 287 -50 357 -8 28 9 31 23 4 12 -21 47 -243 56 -346
7 -81 25 -103 59 -69 18 18 21 73 6 124 -13 41 -50 219 -50 238 0 6 6 12 14
12 16 0 40 -75 61 -190 9 -47 20 -95 25 -107 11 -26 49 -31 51 -8 1 8 2 21 3
28 1 6 -6 46 -16 87 -10 41 -18 84 -18 95 1 38 26 -10 45 -83 20 -80 27 -91
60 -84 19 3 33 -5 62 -36 47 -49 85 -73 99 -64 18 11 32 75 27 121 -3 23 -2
58 2 78 l6 35 23 -21 c22 -21 56 -20 56 1 0 5 8 8 18 7 39 -4 59 2 85 26 34
32 30 53 -24 149 -21 38 -39 74 -39 80 0 7 -4 16 -9 21 -5 6 -26 42 -46 80
-21 39 -44 78 -53 87 -27 32 -89 167 -82 179 5 7 17 -5 32 -32 14 -24 45 -81
71 -125 86 -152 156 -289 161 -316 12 -69 69 -104 82 -51 6 22 -9 60 -76 192
-88 176 -206 383 -237 416 -29 31 -53 68 -53 82 0 22 20 15 29 -10 5 -13 20
-36 34 -53 28 -33 147 -230 147 -243 0 -5 15 -31 34 -58 19 -28 52 -86 74
-129 43 -85 95 -150 112 -139 20 12 10 49 -34 124 -49 84 -80 151 -69 151 4 0
-5 12 -19 28 -34 35 -102 152 -94 160 13 12 55 -47 145 -201 50 -87 91 -161
91 -165 1 -17 40 -52 59 -52 38 0 24 46 -51 172 -100 165 -108 181 -103 187 8
8 46 -32 60 -64 7 -16 34 -60 61 -96 27 -37 57 -81 67 -99 18 -33 33 -35 51
-7 9 14 6 27 -12 59 -12 23 -20 44 -17 46 3 3 23 -11 44 -32 34 -33 42 -37 73
-31 27 5 47 1 85 -19 52 -28 83 -26 83 3 0 20 -36 124 -57 164 l-15 29 31 -7
c27 -6 31 -4 31 14 0 12 -19 41 -42 65 -135 138 -151 158 -132 156 67 -7 58
23 -32 105 -42 39 -85 76 -95 83 -10 7 -24 22 -29 33 -19 35 8 21 58 -30 26
-26 54 -52 63 -57 10 -5 48 -38 87 -74 140 -130 192 -172 207 -166 8 3 15 9
15 14 0 15 -48 73 -79 97 -17 12 -68 58 -114 101 -45 44 -100 94 -122 113 -31
25 -33 29 -10 16 28 -17 95 -66 121 -90 7 -5 31 -26 55 -45 94 -76 121 -101
151 -135 34 -37 65 -45 75 -19 7 20 -104 132 -212 214 -38 29 -102 83 -141
119 -131 121 -217 196 -249 216 -17 11 -51 42 -76 70 -38 43 -40 47 -14 30 17
-10 51 -38 77 -63 25 -24 80 -69 121 -100 96 -73 141 -110 250 -202 48 -41
109 -92 134 -112 26 -20 53 -48 62 -62 15 -24 66 -56 90 -56 14 0 32 35 26 52
-3 7 -21 24 -40 37 -19 13 -45 33 -58 45 -13 11 -59 50 -103 86 -43 35 -81 67
-84 70 -3 3 -31 27 -62 54 -32 26 -55 52 -52 57 3 5 27 -8 53 -31 27 -22 67
-50 89 -63 23 -13 59 -39 79 -58 21 -19 66 -55 100 -81 52 -40 64 -45 78 -34
10 7 16 19 14 28 -2 8 -52 57 -111 107 -106 91 -126 114 -90 104 19 -4 133
-92 192 -148 43 -40 65 -48 80 -30 17 20 -3 50 -53 82 -61 38 -117 83 -117 95
0 13 35 1 89 -32 66 -40 135 -61 205 -62 66 0 99 9 134 40 36 32 28 56 -28 82
-68 32 -95 62 -81 88 6 12 11 27 11 35 0 13 -158 94 -260 133 -25 9 -52 24
-60 32 -13 12 -10 13 31 8 35 -5 49 -3 59 9 19 23 5 32 -81 57 -41 11 -82 30
-91 41 -20 22 -23 31 -9 22 6 -3 36 -10 68 -16 32 -6 95 -26 139 -44 45 -18
106 -38 135 -45 30 -7 66 -19 81 -26 32 -17 55 -10 64 19 9 28 -12 41 -94 61
-37 9 -107 30 -157 47 -49 17 -117 37 -150 45 -80 18 -139 40 -143 52 -5 15
40 23 56 10 14 -12 283 -99 382 -124 74 -19 119 -18 127 2 13 36 7 38 -473
159 -212 53 -254 67 -254 85 0 6 28 -1 63 -14 73 -27 166 -50 337 -82 47 -9
137 -29 200 -45 139 -35 156 -36 166 -7 5 16 1 27 -15 39 l-22 18 21 21 c16
16 18 25 10 40 -10 19 -26 23 -145 34 -27 3 -75 12 -105 21 -30 8 -68 17 -85
20 -16 3 -75 14 -130 25 -55 11 -117 22 -137 25 -59 9 -46 27 13 20 138 -16
252 -35 315 -53 38 -11 98 -23 134 -26 36 -3 79 -8 95 -11 43 -9 73 15 59 46
-7 16 -7 32 -1 50 18 45 6 54 -95 72 -52 9 -107 17 -122 17 -18 0 -26 4 -23
13 2 6 9 11 15 10 5 -1 60 -7 121 -13 128 -13 152 -6 125 35 -14 21 -13 23 13
40 56 35 80 89 51 113 -7 5 -46 20 -85 33 -40 13 -73 28 -73 34 0 6 15 15 33
20 27 9 32 15 32 42 0 18 5 37 12 44 8 8 9 18 2 31 -11 21 -63 24 -181 9 -40
-5 -109 -12 -153 -16 -44 -3 -114 -11 -155 -16 -64 -9 -206 -6 -217 5 -2 1 36
6 84 10 118 9 164 15 258 31 44 8 138 15 209 17 100 2 134 7 149 19 16 13 18
19 8 37 -6 12 -18 22 -26 22 -20 0 -19 26 0 34 22 8 19 53 -4 61 -11 3 -82 -6
-158 -21 -76 -14 -158 -28 -183 -30 -25 -3 -65 -9 -90 -14 -65 -14 -254 -39
-328 -43 -68 -4 -73 8 -6 18 22 3 56 10 75 16 19 5 75 14 124 19 102 10 155
26 155 45 0 28 -35 29 -180 6 -36 -6 -87 -13 -115 -16 -27 -4 -79 -13 -114
-21 -98 -22 -98 1 0 35 33 12 96 21 164 25 64 3 138 13 175 25 68 20 108 30
150 37 29 6 200 50 248 65 25 8 32 16 30 31 -6 39 -30 43 -104 15 -87 -32
-277 -86 -284 -80 -3 3 7 15 22 28 17 15 46 25 85 30 77 9 191 49 264 91 60
36 71 50 44 60 -16 6 -31 2 -141 -44 -96 -40 -134 -48 -134 -28 0 10 37 33
103 64 124 59 183 107 173 140 -9 28 -29 38 -91 46 -74 10 -93 16 -99 31 -3 8
3 17 14 20 22 7 33 35 24 59 -9 23 -18 21 -109 -23 -44 -22 -93 -43 -109 -47
-53 -13 -19 12 78 59 56 27 101 56 111 71 34 51 -13 62 -78 18 -120 -82 -339
-202 -367 -202 -22 0 -8 22 23 36 57 26 372 249 375 266 2 9 -5 21 -16 27 -17
9 -44 -8 -183 -110 -176 -129 -315 -208 -333 -189 -14 14 19 42 134 113 96 60
252 174 320 234 39 35 43 42 31 57 -23 28 -52 18 -106 -37 -29 -28 -94 -81
-144 -117 -50 -36 -104 -75 -119 -88 -15 -13 -64 -46 -110 -73 -46 -27 -95
-57 -108 -66 -22 -14 -24 -14 -18 1 3 9 31 31 63 50 31 19 86 61 122 94 37 32
95 81 130 107 35 27 66 52 69 55 3 3 32 27 65 52 68 52 101 98 83 116 -19 19
-28 15 -87 -40 -59 -55 -77 -70 -151 -128 -25 -19 -54 -42 -65 -52 -101 -84
-165 -132 -165 -125 0 8 66 74 160 158 106 94 250 242 250 256 0 18 -28 35
-44 26 -14 -8 -177 -160 -327 -305 -38 -37 -86 -79 -106 -95 -21 -15 -78 -66
-126 -113 -48 -47 -93 -87 -100 -89 -12 -3 63 75 308 323 72 72 150 156 175
186 25 30 64 76 88 102 46 53 55 88 22 88 -22 0 -64 -41 -187 -185 -155 -181
-217 -207 -79 -33 132 166 208 282 199 304 -13 34 -47 9 -96 -72 -20 -33 -49
-73 -64 -88 -15 -15 -36 -42 -48 -61 -26 -43 -115 -140 -115 -125 0 27 52 109
94 147 25 23 46 47 46 54 0 6 19 36 43 67 64 85 90 132 72 132 -8 0 -15 -3
-15 -7 0 -5 -23 -33 -50 -63 -27 -30 -50 -60 -50 -66 0 -6 -7 -17 -15 -24 -29
-24 -16 11 30 80 84 126 99 185 52 203 -16 6 -81 -23 -119 -55 -39 -31 -42
-19 -8 32 32 48 38 75 18 82 -21 8 -38 -2 -54 -34 -18 -34 -133 -189 -172
-230 -43 -47 -43 -21 1 47 23 35 55 86 70 112 15 26 39 66 52 88 30 48 33 85
8 85 -11 0 -35 -27 -62 -73 -185 -301 -268 -401 -134 -162 30 55 69 123 86
150 84 139 92 165 48 165 -13 0 -29 -17 -49 -52 -87 -158 -164 -291 -204 -354
-25 -39 -54 -86 -64 -105 -9 -19 -19 -29 -21 -23 -2 6 27 72 64 145 38 74 88
176 112 227 24 50 46 92 50 92 4 0 18 23 31 51 20 41 22 52 10 59 -7 4 -19 6
-25 4 -11 -5 -85 -132 -135 -234 -26 -54 -111 -200 -116 -200 -5 0 11 39 30
75 9 17 16 34 16 39 0 5 38 78 85 163 73 131 84 156 75 174 -23 41 -55 8 -126
-129 -9 -18 -19 -30 -22 -27 -3 3 13 41 35 85 33 64 38 82 27 90 -14 12 -33
-2 -66 -50 l-18 -25 10 28 c5 15 17 41 26 58 17 34 13 59 -10 59 -20 0 -64
-66 -117 -175 -25 -52 -45 -83 -47 -73 -2 10 19 65 47 123 28 57 51 111 51
119 0 15 -27 30 -34 18 -2 -4 -23 -43 -46 -87 -67 -128 -84 -153 -88 -131 -2
10 1 28 7 40 31 63 89 212 85 218 -3 5 -14 8 -24 8 -19 0 -60 -63 -60 -93 0
-7 -7 -22 -16 -33 -14 -18 -15 -16 -10 31 4 27 20 78 36 112 32 66 30 103 -5
117 -33 12 -51 5 -123 -49 -40 -30 -76 -55 -78 -55 -3 0 -3 14 0 31 5 32 -16
51 -36 31 -15 -15 -78 -230 -84 -287 -3 -27 -9 -73 -15 -101 -5 -28 -12 -64
-15 -80 -10 -66 -16 -83 -28 -94 -22 -17 -27 15 -11 63 8 23 21 87 30 142 9
54 18 102 20 105 2 4 7 29 10 56 12 90 16 107 37 157 21 48 21 50 3 63 -31 23
-51 -8 -69 -106 -2 -14 -12 -61 -21 -105 -9 -44 -18 -89 -20 -100 -1 -11 -7
-49 -13 -85 -6 -36 -13 -82 -16 -102 -17 -111 -45 -186 -66 -173 -16 10 -12
44 15 146 14 51 34 152 45 223 11 72 32 169 46 217 15 48 24 95 21 103 -8 21
-34 20 -46 -1 -14 -28 -59 -222 -66 -285 -3 -32 -12 -75 -20 -95 -15 -37 -15
-35 -10 52 2 50 9 106 14 125 5 19 12 53 16 75 3 22 14 64 25 93 25 67 25 81
-2 91 -27 10 -44 -14 -54 -76 -3 -21 -7 -45 -9 -53 -5 -18 -12 -75 -20 -152
-3 -32 -10 -68 -15 -80 -14 -33 -10 134 5 245 10 71 9 89 -2 98 -21 18 -41 3
-52 -39 -6 -21 -13 -117 -16 -213 -3 -96 -9 -190 -13 -209 -5 -19 -10 -66 -11
-105 -2 -70 -12 -98 -26 -74 -8 12 -8 122 1 174 3 25 11 217 18 449 1 36 -3
51 -16 60 -46 29 -55 -38 -62 -507 -2 -125 -6 -231 -9 -234 -10 -10 -13 510
-3 640 2 38 2 75 -1 83 -6 17 -39 19 -48 3 -4 -6 -7 -104 -6 -219 1 -189 -5
-241 -24 -211 -3 6 -8 36 -11 68 -3 32 -9 93 -15 135 -9 69 -11 145 -6 237 1
22 -4 37 -15 45 -25 15 -42 -5 -40 -49 2 -45 -3 -44 -19 3 -6 20 -17 40 -23
44 -22 15 -55 7 -75 -18z m-531 -254 c32 -126 49 -220 40 -225 -18 -11 -49 46
-46 82 2 20 0 50 -5 67 -9 35 -22 172 -15 165 2 -2 14 -42 26 -89z m1430 -14
c0 -8 -9 -30 -20 -49 -35 -58 -50 -128 -56 -252 -8 -184 -20 -223 -96 -313
-39 -45 -72 -103 -123 -215 -24 -52 -43 -60 -102 -42 -26 8 -56 20 -66 27 -17
12 -16 15 8 48 15 19 42 65 61 101 24 46 50 77 86 105 79 60 158 141 174 179
7 19 17 78 20 132 7 111 22 165 67 241 32 52 47 65 47 38z m-872 -314 c2 -174
5 -348 6 -386 2 -50 -2 -73 -13 -86 -17 -19 -91 -38 -128 -32 -31 5 -30 36 6
192 28 123 65 327 76 425 6 62 38 205 45 205 3 0 7 -143 8 -318z m-748 217 c0
-36 40 -140 81 -207 36 -60 37 -64 11 -37 -38 41 -79 105 -95 152 -17 51 -22
127 -8 119 6 -4 11 -16 11 -27z m826 -174 c9 -224 7 -425 -4 -470 -9 -38 -18
283 -14 509 2 92 4 167 6 165 2 -2 7 -94 12 -204z m339 -81 c-17 -93 -32 -133
-21 -51 14 93 30 169 34 158 2 -7 -4 -55 -13 -107z m440 -50 c-9 -99 -25 -140
-106 -273 -79 -130 -104 -174 -115 -206 -6 -17 -8 -18 -11 -3 -8 32 30 103
154 284 36 52 61 141 62 222 1 23 6 42 11 42 7 0 8 -24 5 -66z m-705 -109 c2
-183 1 -200 -9 -189 -17 17 -30 292 -15 316 15 24 23 -16 24 -127z m-793 42
c27 -39 53 -81 58 -92 4 -11 9 -69 10 -130 2 -80 8 -127 24 -172 12 -34 21
-65 21 -68 0 -2 -18 -16 -41 -31 -54 -34 -81 -27 -108 28 -44 92 -50 198 -18
338 14 61 14 70 4 118 -25 115 -22 116 50 9z m88 8 c30 -51 46 -102 50 -160 1
-22 5 -64 10 -92 5 -36 3 -53 -4 -53 -12 0 -12 1 -16 80 -4 90 -15 142 -46
203 -16 32 -29 60 -29 62 0 14 12 0 35 -40z m243 -10 c-3 -4 -2 -23 3 -43 4
-21 11 -69 14 -107 4 -38 9 -74 13 -80 3 -5 -1 -4 -10 3 -9 8 -18 38 -22 85
-5 39 -10 89 -12 110 -2 23 1 37 8 37 6 0 9 -2 6 -5z m1392 -70 c-11 -25 -29
-66 -41 -92 -36 -85 -89 -187 -109 -213 l-20 -25 0 26 c0 15 8 37 18 50 26 34
68 109 118 212 46 91 67 119 34 42z m-2564 -36 c3 -6 50 -39 103 -74 53 -35
112 -74 131 -88 19 -13 125 -84 235 -157 110 -73 211 -143 224 -156 l25 -23
-24 -26 c-13 -14 -39 -34 -58 -45 l-34 -20 -71 67 c-39 38 -147 143 -241 234
-94 92 -206 194 -248 228 -43 34 -78 63 -78 66 0 10 29 5 36 -6z m2353 -36
c-13 -21 -39 -63 -59 -93 -19 -30 -48 -84 -64 -120 -35 -79 -51 -99 -41 -50
12 55 43 121 84 175 20 28 47 67 60 88 12 20 27 37 33 37 5 0 -1 -17 -13 -37z
m-1300 -45 c5 -35 13 -90 17 -123 3 -33 9 -64 12 -69 3 -5 0 -6 -5 -3 -6 4
-16 26 -22 50 -12 50 -26 207 -18 207 3 0 10 -28 16 -62z m1529 -25 c-42 -96
-118 -229 -118 -207 0 22 124 254 136 254 1 0 -7 -21 -18 -47z m401 -5 c-24
-29 -78 -94 -119 -144 -41 -50 -84 -102 -95 -116 -11 -15 -36 -43 -55 -65 -20
-21 -53 -60 -75 -88 -22 -27 -55 -65 -73 -84 l-34 -34 -51 49 c-67 64 -76 76
-77 95 0 9 43 45 104 86 57 39 177 126 266 193 175 131 218 160 238 160 8 0
-5 -23 -29 -52z m-652 -100 c-25 -46 -50 -100 -57 -120 -13 -44 -34 -52 -24
-10 15 65 107 232 121 218 3 -2 -15 -42 -40 -88z m-2107 -120 c0 -5 -8 0 -17
11 -121 127 -128 136 -55 66 39 -38 72 -73 72 -77z m1465 -11 c319 -17 713
-247 896 -523 21 -33 51 -77 66 -99 30 -42 87 -151 98 -185 5 -17 3 -21 -12
-18 -24 4 -23 -13 14 -184 30 -142 38 -163 53 -138 8 13 6 62 -5 138 -7 45 11
40 20 -5 5 -21 10 -45 12 -53 7 -34 15 -150 15 -223 -1 -74 -13 -114 -33 -102
-15 10 -29 -34 -29 -93 0 -33 -9 -88 -20 -123 -11 -34 -23 -77 -26 -93 -3 -17
-21 -71 -40 -120 -23 -56 -32 -92 -26 -98 6 -6 15 -3 26 7 32 33 15 -8 -41
-92 -28 -43 -39 -52 -56 -48 -16 4 -35 -7 -72 -42 -27 -27 -55 -57 -62 -68
-10 -19 -11 -19 -18 -2 -6 14 5 31 43 70 77 80 196 272 190 309 -7 46 -29 27
-72 -64 -46 -93 -75 -134 -131 -177 -16 -12 -46 -37 -65 -54 -45 -41 -178
-141 -207 -156 -28 -14 -31 -51 -5 -51 10 0 39 13 65 30 26 16 53 30 59 30 23
0 -45 -59 -129 -112 -47 -29 -98 -61 -115 -72 -16 -10 -31 -16 -34 -13 -3 2
11 14 31 25 47 28 48 57 2 49 -60 -10 -107 -34 -107 -56 0 -21 9 -25 44 -21
29 3 9 -17 -29 -30 -24 -8 -35 -18 -35 -31 0 -40 88 -13 228 70 67 39 83 41
20 1 -25 -16 -49 -38 -52 -48 -7 -22 -63 -48 -196 -94 -143 -49 -251 -65 -418
-62 -81 1 -157 5 -170 8 -255 60 -383 112 -551 226 -256 171 -465 483 -538
800 -18 81 -24 327 -11 475 13 143 72 315 162 473 66 117 84 142 181 248 80
88 240 203 370 267 84 42 272 104 335 111 25 3 72 8 105 12 33 3 61 7 63 9 2
2 64 0 207 -8z m-1423 -141 c8 -14 7 -17 -3 -10 -31 19 -62 51 -76 79 -15 29
-13 28 27 -10 23 -22 46 -48 52 -59z m121 -8 c35 -35 85 -82 112 -106 33 -29
45 -46 38 -53 -7 -7 -44 24 -117 98 -95 96 -117 123 -101 123 3 0 34 -28 68
-62z m2480 18 c-19 -32 -137 -185 -140 -182 -10 10 63 126 122 192 13 15 28 7
18 -10z m-129 -58 c-84 -118 -117 -158 -130 -158 -8 0 -14 3 -14 6 0 7 81 103
137 164 18 19 33 39 33 44 0 5 3 7 6 3 4 -3 -11 -30 -32 -59z m111 -75 c-9
-21 -29 -51 -44 -68 -40 -44 -50 -56 -76 -100 -14 -22 -25 -34 -25 -26 0 16
60 117 87 146 10 11 29 35 41 53 31 42 36 41 17 -5z m-2388 -83 c15 -18 16
-30 3 -30 -15 0 -41 27 -84 90 l-38 55 53 -50 c29 -27 59 -57 66 -65z m-57
-72 c1 -34 -73 38 -84 82 -6 20 2 15 38 -25 25 -27 46 -53 46 -57z m-559 48
c26 -8 65 -24 87 -35 69 -35 187 -63 260 -61 107 3 119 1 151 -26 37 -31 38
-46 2 -104 -25 -40 -31 -45 -65 -46 -113 -2 -183 23 -310 110 -36 24 -79 47
-96 51 -18 4 -52 16 -76 27 -32 14 -73 20 -147 23 -139 4 -249 15 -267 26 -10
5 4 9 40 9 30 0 73 5 95 10 22 5 63 13 90 16 28 4 52 8 54 10 11 10 141 2 182
-10z m3827 -121 c2 -2 -15 -9 -38 -15 -22 -6 -85 -33 -138 -60 -138 -69 -186
-80 -310 -76 -120 4 -161 -5 -266 -64 -69 -37 -74 -39 -88 -22 -28 31 -50 84
-44 106 6 25 84 79 141 97 52 17 225 16 295 -1 83 -21 195 -15 282 14 40 14
82 27 93 29 20 4 67 -1 73 -8z m-3598 -185 c29 -11 74 -20 106 -20 31 0 53 -4
50 -9 -4 -5 -18 -8 -34 -6 -15 2 -47 6 -72 9 -40 4 -110 31 -110 42 0 7 7 5
60 -16z m-112 -27 c38 -25 114 -49 190 -59 69 -9 47 -24 -26 -18 -59 5 -164
48 -199 83 -13 12 -23 24 -23 27 0 6 9 1 58 -33z m3572 18 c0 -10 -104 -58
-145 -65 -23 -5 -20 -1 15 14 25 12 63 29 85 40 48 23 45 22 45 11z m-245 -19
c5 -1 4 -7 -2 -13 -6 -6 -46 -13 -90 -15 -126 -6 -189 -22 -261 -64 -34 -21
-52 -19 -52 4 0 27 131 78 225 88 29 3 160 3 180 0z m-160 -82 c-2 -4 -24 -10
-47 -14 -58 -9 -129 -42 -154 -71 -12 -14 -24 -22 -28 -18 -12 12 72 79 118
94 49 16 119 21 111 9z m259 -39 c-10 -11 -169 -53 -264 -70 -36 -7 -93 -28
-127 -46 -64 -35 -91 -32 -57 7 38 41 131 75 232 85 35 3 98 13 140 22 78 17
93 18 76 2z m-3257 -16 c20 3 45 3 55 -1 34 -11 0 -36 -41 -31 -44 5 -121 36
-121 48 0 4 16 1 36 -7 21 -9 50 -13 71 -9z m3758 -181 c-14 -5 -350 -62 -410
-69 -27 -3 -66 -7 -85 -10 -36 -5 -187 -15 -277 -19 -28 -1 -50 1 -47 5 4 7
43 12 181 24 34 3 70 8 81 10 10 2 43 6 73 10 30 4 56 8 60 10 3 2 39 6 80 10
93 7 143 14 194 24 40 9 169 13 150 5z m-3732 -118 c-1 -51 -6 -83 -15 -92
-14 -14 -26 -15 -453 -29 -99 -4 -196 -10 -215 -14 -19 -4 -42 -6 -50 -5 -8 0
-28 2 -45 3 -37 2 -18 16 35 25 42 7 143 34 265 71 195 58 284 83 321 89 22 3
57 12 79 21 74 27 80 21 78 -69z m2952 -81 c121 -28 144 -33 215 -40 73 -8 91
-11 255 -50 77 -19 158 -37 180 -40 108 -16 135 -23 135 -34 0 -5 -46 -7 -102
-5 -264 8 -681 18 -755 18 -46 0 -84 3 -84 6 -4 13 -12 157 -10 173 1 9 21 6
166 -28z m717 13 c-9 -9 -238 -21 -229 -12 4 4 35 9 69 11 35 3 64 6 65 6 1 1
24 2 52 2 28 0 47 -3 43 -7z m38 8 c0 -3 -4 -8 -10 -11 -5 -3 -10 -1 -10 4 0
6 5 11 10 11 6 0 10 -2 10 -4z m-3740 -131 c0 -6 -33 -12 -72 -14 -105 -5
-144 -4 -623 9 -17 0 -25 4 -18 8 18 11 713 9 713 -3z m-24 -77 c9 -10 -2 -10
-136 -10 -129 1 -147 3 -95 11 56 9 222 7 231 -1z m3012 -37 c12 -7 -11 -10
-76 -13 -79 -3 -92 -1 -92 13 0 14 11 16 75 13 42 -2 84 -8 93 -13z m312 -9
c0 -8 -151 -4 -159 4 -2 2 32 4 77 4 45 0 82 -4 82 -8z m35 -10 c-3 -3 -11 0
-18 7 -9 10 -8 11 6 5 10 -3 15 -9 12 -12z m-629 -84 c-9 -80 -25 -111 -26
-47 0 44 16 109 27 109 3 0 2 -28 -1 -62z m169 38 c17 -3 84 -8 150 -11 66 -4
122 -9 124 -11 6 -6 -99 -5 -226 3 -88 5 -113 9 -113 20 0 9 7 12 18 9 9 -3
31 -7 47 -10z m735 -91 c14 -2 63 -12 110 -21 103 -20 131 -38 45 -29 -133 13
-365 51 -375 62 -6 6 180 -3 220 -12z m-656 -5 c-36 -14 -154 -23 -154 -12 0
16 20 20 100 21 52 0 68 -3 54 -9z m-2878 -77 c6 -28 21 -71 33 -95 30 -62 27
-83 -12 -101 -63 -30 -88 -37 -169 -43 -91 -7 -243 -51 -299 -89 -49 -32 -182
-148 -252 -220 -33 -33 -57 -53 -54 -44 6 20 126 177 177 232 49 54 151 119
240 153 41 15 91 38 111 50 41 25 114 105 136 149 41 81 72 84 89 8z m2879
-94 c83 -35 196 -117 214 -156 l13 -28 -28 25 c-16 14 -35 32 -44 41 -37 38
-180 113 -234 123 -44 8 -66 17 -66 27 0 15 66 0 145 -32z m-3157 6 c-5 -5
-201 -44 -243 -49 -22 -2 -71 -9 -110 -15 -96 -14 -154 -20 -260 -26 -83 -4
-88 -4 -59 9 34 16 76 23 179 31 89 7 318 36 327 41 4 3 37 7 75 10 37 3 70 8
72 10 2 2 8 1 13 -2 5 -3 8 -7 6 -9z m3087 -49 c99 -46 144 -78 254 -182 52
-49 109 -99 127 -112 19 -12 34 -27 34 -32 0 -28 -43 3 -169 120 -119 112
-190 161 -271 191 -34 12 -60 28 -60 35 0 19 1 19 85 -20z m-71 -104 c34 -16
91 -64 197 -169 83 -82 171 -160 197 -175 26 -15 84 -37 127 -47 87 -22 225
-79 225 -92 0 -13 -14 -11 -66 12 -47 19 -170 51 -246 63 -90 14 -175 55 -243
119 -92 85 -243 157 -332 157 -24 0 -43 2 -43 4 0 12 72 141 82 147 17 10 48
4 102 -19z m-2683 -31 c-38 -29 -167 -63 -256 -67 -77 -3 -154 -22 -182 -45
-8 -7 -13 -8 -13 -1 0 12 81 51 118 57 15 2 62 6 104 9 68 5 177 33 218 57 28
16 35 9 11 -10z m14 -61 c-48 -32 -153 -61 -245 -66 -47 -3 -98 -10 -114 -15
-16 -5 -31 -7 -33 -5 -9 9 69 27 155 36 112 12 132 17 197 46 62 29 79 30 40
4z m3003 -95 c65 -60 157 -113 220 -125 93 -18 160 -41 178 -61 21 -23 5 -25
-34 -5 -15 8 -73 26 -129 39 -132 33 -208 81 -283 177 -37 48 -22 40 48 -25z
m-2958 50 c0 -13 -125 -61 -183 -70 -114 -18 -126 -7 -17 15 36 8 94 24 130
36 36 12 66 23 68 23 1 1 2 -1 2 -4z m143 -120 c46 -57 50 -79 20 -106 -14
-13 -59 -67 -101 -119 -42 -52 -83 -102 -91 -110 -21 -19 -69 -77 -101 -120
-14 -18 -30 -38 -35 -44 -9 -9 -49 -65 -87 -120 -5 -7 -11 -7 -17 -1 -7 7 14
48 59 120 87 139 167 278 215 375 55 111 85 160 98 160 7 0 24 -16 40 -35z
m2252 -42 c22 -25 87 -113 108 -145 28 -44 4 -32 -39 19 -21 26 -56 67 -76 91
-21 24 -38 45 -38 48 0 11 32 2 45 -13z m-2970 -72 c-19 -18 -177 -113 -171
-102 7 10 165 111 175 111 3 0 1 -4 -4 -9z m3009 -101 c33 -41 79 -95 102
-120 74 -80 174 -204 174 -215 -1 -11 -94 84 -180 184 -30 35 -59 69 -65 75
-5 6 -28 34 -50 61 -22 28 -50 61 -62 75 -13 14 -23 31 -23 39 0 20 29 -8 104
-99z m-91 -2 c43 -46 121 -132 172 -193 51 -60 107 -124 123 -141 16 -18 46
-53 68 -80 21 -26 69 -77 106 -112 66 -62 117 -132 98 -132 -6 0 -20 12 -33
27 -12 15 -58 66 -103 113 -44 47 -105 112 -135 145 -30 33 -61 67 -69 75 -8
8 -40 44 -70 80 -30 36 -94 104 -141 152 -48 47 -91 100 -97 117 -6 17 -8 31
-5 31 4 0 42 -37 86 -82z m-2126 40 c-8 -13 -47 -57 -86 -98 -39 -41 -97 -106
-128 -145 -32 -38 -76 -86 -98 -105 -27 -23 -33 -26 -20 -10 11 14 22 27 25
30 3 3 21 25 40 50 19 24 42 52 50 61 8 8 34 38 57 66 112 134 212 227 160
151z m2038 -60 c30 -36 143 -163 216 -243 25 -27 78 -89 117 -136 40 -48 91
-102 114 -120 83 -67 108 -91 102 -100 -4 -7 -85 50 -114 81 -3 3 -67 45 -143
94 -76 49 -144 94 -150 100 -7 7 -90 63 -184 125 -95 62 -173 119 -173 126 0
7 12 21 28 31 15 10 36 29 46 42 25 32 75 53 97 41 9 -5 29 -23 44 -41z
m-1999 -15 c-48 -61 -181 -201 -231 -243 -16 -14 -7 0 20 30 28 30 82 93 120
139 90 109 112 131 125 131 6 0 -9 -26 -34 -57z m328 -125 c54 -26 59 -43 41
-130 -17 -82 -31 -109 -90 -173 -26 -27 -55 -66 -66 -87 -30 -59 -48 -151 -41
-215 10 -107 5 -169 -16 -210 -12 -21 -28 -55 -38 -76 -23 -52 -30 -39 -10 20
28 85 30 131 7 228 -12 50 -24 120 -27 156 -7 73 2 96 90 238 52 84 74 144 80
216 3 28 5 51 5 53 2 7 25 0 65 -20z m129 -135 c-5 -45 -56 -162 -65 -147 -4
5 7 36 23 69 16 33 29 74 29 93 0 18 4 31 9 28 4 -3 6 -22 4 -43z m1057 0 c17
-21 42 -61 56 -90 23 -45 26 -65 26 -155 0 -56 5 -116 11 -133 14 -42 56 -100
122 -170 51 -54 134 -199 122 -212 -3 -2 -20 17 -38 44 -42 61 -47 65 -144
114 -129 65 -165 113 -190 256 -23 127 -45 176 -119 258 -63 69 -63 69 7 98
87 36 109 35 147 -10z m246 0 c24 -57 60 -166 59 -182 0 -27 -25 -24 -25 4 0
14 -16 64 -35 111 -31 74 -36 104 -20 104 3 0 12 -17 21 -37z m-1211 18 c8
-14 -30 -108 -77 -188 -66 -111 -141 -218 -146 -205 -5 16 13 47 75 128 48 64
68 105 116 242 12 33 21 39 32 23z m57 -84 c-15 -56 -46 -106 -58 -95 -3 4 2
22 13 41 11 18 26 50 32 70 19 57 30 43 13 -16z m299 27 c10 -12 14 -52 15
-138 1 -66 4 -143 8 -171 8 -65 10 -534 2 -542 -3 -4 -6 3 -6 15 0 12 -11 59
-24 105 -13 45 -26 96 -29 112 -3 17 -12 68 -20 115 -9 47 -18 104 -21 127 -5
36 -29 150 -75 345 -5 20 -6 40 -3 43 3 3 36 5 72 5 50 0 71 -4 81 -16z m252
-45 c-2 -31 -12 -141 -19 -203 -4 -49 -10 -64 -18 -55 -4 4 -8 146 -7 251 1
45 2 47 24 39 15 -6 21 -16 20 -32z m-160 -231 c-3 -403 -7 -549 -15 -535 -8
15 -9 739 -1 771 13 49 18 -21 16 -236z m68 -9 c-1 -134 -2 -252 -4 -261 -4
-25 -13 -31 -15 -10 -3 44 -1 459 2 477 3 11 5 26 5 34 1 8 4 12 7 9 3 -3 5
-115 5 -249z m-1508 207 c-58 -75 -109 -135 -115 -135 -19 -2 -3 21 58 88 65
70 93 93 57 47z m2186 -125 c21 -84 41 -138 62 -169 38 -56 34 -73 -8 -32 -40
39 -70 119 -84 219 -5 42 -12 87 -14 100 -3 14 -1 20 4 15 5 -5 23 -65 40
-133z m-1425 -26 c-9 -14 -27 -51 -41 -82 l-24 -58 4 47 c3 31 14 60 31 83 31
40 55 48 30 10z m1386 -74 c25 -69 58 -125 118 -197 61 -73 97 -130 121 -192
23 -58 38 -141 23 -127 -6 6 -14 26 -17 45 -10 58 -50 130 -126 225 -101 126
-143 194 -155 250 -1 6 -3 15 -4 20 -13 57 18 39 40 -24z m-446 -161 c4 -30 8
-68 11 -85 10 -69 15 -125 20 -210 l4 -90 -14 65 c-23 109 -37 223 -39 323 -2
85 8 84 18 -3z"/>
<path d="M1974 3544 c-95 -19 -192 -61 -255 -108 -32 -24 -63 -46 -67 -48 -5
-1 -13 -13 -16 -26 -12 -36 15 -36 90 -1 38 17 80 35 94 39 14 5 41 15 61 23
32 14 39 14 65 1 16 -9 57 -16 92 -16 46 -1 62 -5 62 -15 0 -8 20 -26 45 -41
24 -15 45 -29 45 -32 0 -3 -35 -5 -77 -5 -43 0 -96 -3 -118 -8 -126 -23 -154
-31 -197 -54 -90 -49 -105 -88 -55 -138 19 -19 40 -35 45 -35 6 0 16 15 22 34
8 25 20 38 42 45 17 6 33 11 34 11 2 0 4 -15 4 -33 0 -24 10 -42 37 -71 40
-41 71 -57 118 -60 17 -2 45 -11 64 -20 20 -11 46 -16 65 -13 17 2 44 0 59 -6
35 -12 88 2 155 42 68 40 74 66 31 133 -19 29 -51 70 -71 90 -21 21 -32 38
-25 38 22 0 104 -59 123 -88 10 -15 28 -35 41 -45 13 -10 23 -29 23 -42 0 -32
22 -48 44 -32 16 12 20 50 13 133 -6 83 -129 239 -226 288 -110 56 -264 81
-367 60z m105 -348 c26 -31 -20 -67 -59 -46 -21 11 -24 19 -14 44 8 20 57 21
73 2z m254 -35 c19 -2 3 -33 -41 -80 -44 -47 -72 -63 -72 -42 0 5 11 33 24 64
25 55 37 67 66 61 8 -1 18 -3 23 -3z"/>
<path d="M3229 3556 c-2 -2 -23 -6 -47 -10 -100 -13 -237 -106 -301 -203 -32
-48 -63 -135 -78 -215 -15 -88 -7 -448 12 -478 4 -6 23 -18 43 -28 30 -14 37
-23 37 -46 0 -27 -4 -31 -48 -42 -26 -7 -64 -24 -83 -39 -20 -15 -46 -27 -59
-27 -13 0 -64 23 -115 53 -97 55 -99 59 -75 119 8 22 -18 55 -38 47 -23 -9
-59 -84 -60 -125 -1 -35 -2 -34 89 -112 16 -14 44 -36 62 -48 37 -27 52 -51
58 -95 2 -17 7 -34 12 -39 15 -15 43 4 49 34 3 16 14 33 24 39 16 8 20 5 25
-18 14 -59 59 -75 70 -25 12 54 15 61 32 66 9 3 19 5 22 4 11 -4 70 37 75 52
3 9 26 28 53 42 95 51 105 124 27 205 -57 58 -67 91 -61 195 6 102 12 129 42
190 40 79 65 80 130 8 67 -74 145 -89 230 -44 67 35 83 51 90 91 8 43 24 50
64 26 24 -14 30 -23 24 -38 -3 -11 -7 -31 -8 -45 -1 -21 3 -25 23 -22 13 1 43
11 67 22 42 18 44 21 44 60 0 34 -6 48 -30 70 -37 34 -154 103 -203 119 -52
17 -178 19 -234 4 -26 -7 -61 -16 -78 -20 -28 -6 -29 -5 -15 12 37 45 92 75
140 75 32 0 55 6 73 20 33 26 52 25 64 -2 9 -20 18 -23 84 -25 41 -1 92 -9
114 -16 76 -28 88 8 23 72 -78 79 -217 141 -312 141 -29 0 -55 -2 -57 -4z m40
-370 c23 -28 -8 -60 -47 -49 -44 11 -33 63 13 63 12 0 28 -6 34 -14z"/>
<path d="M3788 2894 c-15 -24 -30 -305 -20 -361 2 -13 8 -23 13 -23 21 0 30
63 30 202 -1 136 -10 204 -23 182z"/>
<path d="M3850 2703 c1 -62 -5 -118 -15 -153 -9 -30 -19 -76 -22 -102 -5 -43
-3 -48 14 -48 17 0 22 14 38 98 18 89 27 242 17 285 -2 9 -11 17 -18 17 -11 0
-14 -21 -14 -97z"/>
<path d="M3670 2491 c-5 -11 -10 -26 -10 -33 0 -7 -11 -38 -23 -69 -25 -61
-25 -79 3 -79 38 0 80 111 71 188 -2 19 -29 14 -41 -7z"/>
<path d="M3746 2438 c-11 -29 -35 -88 -54 -131 -26 -58 -32 -81 -24 -89 15
-15 46 12 63 55 7 18 21 52 32 77 22 48 29 131 12 137 -6 2 -19 -20 -29 -49z"/>
<path d="M2553 2200 c-67 -33 -154 -60 -195 -60 -5 0 -18 16 -29 35 -36 60
-68 44 -88 -43 -10 -47 2 -73 38 -79 12 -1 39 -15 61 -29 23 -15 70 -32 111
-40 40 -7 102 -28 138 -46 89 -43 241 -88 262 -77 9 5 20 24 23 44 5 26 17 42
51 65 24 16 50 30 57 30 7 0 40 14 73 30 33 16 69 30 81 30 27 0 54 30 54 59
0 28 -36 81 -55 81 -8 0 -21 -11 -30 -23 -37 -57 -98 -53 -195 11 -54 36 -57
37 -156 38 -56 1 -106 4 -111 7 -5 4 -46 -12 -90 -33z m172 -165 c33 -4 79 -3
101 3 23 5 48 6 55 1 9 -5 4 -10 -17 -14 -16 -4 -46 -13 -67 -21 -52 -20 -91
-18 -169 9 -83 27 -91 47 -15 36 28 -5 79 -11 112 -14z"/>
<path d="M3457 2044 c-46 -44 -56 -73 -30 -81 16 -6 104 88 101 106 -5 27 -23
21 -71 -25z"/>
<path d="M2607 1824 c-50 -15 -68 -37 -48 -57 8 -8 26 -7 71 5 95 25 180 12
180 -28 0 -23 43 -55 70 -52 30 4 50 49 34 76 -33 56 -209 88 -307 56z"/>
<path d="M736 4391 c-10 -15 47 -83 130 -155 118 -101 151 -126 171 -126 29 0
9 34 -60 102 -161 163 -223 208 -241 179z"/>
<path d="M680 4335 c-16 -19 -1 -44 62 -98 29 -25 67 -57 83 -71 30 -27 65
-31 72 -9 2 6 -15 28 -39 49 -24 22 -64 59 -89 85 -53 53 -73 63 -89 44z"/>
<path d="M906 4111 c-4 -5 13 -24 36 -42 24 -19 45 -36 48 -40 3 -3 15 -11 27
-17 16 -9 22 -9 26 1 7 20 -11 46 -55 77 -41 30 -72 38 -82 21z"/>
<path d="M481 3956 c-10 -12 -1 -22 49 -56 77 -52 129 -75 143 -61 17 17 0 38
-50 66 -26 15 -60 36 -75 46 -33 23 -51 24 -67 5z"/>
<path d="M5000 3268 c-14 -6 -36 -13 -50 -15 -14 -2 -57 -10 -97 -18 -40 -8
-81 -15 -91 -15 -29 0 -48 -26 -32 -45 7 -8 16 -12 21 -9 5 3 42 7 82 9 100 5
208 23 235 41 25 17 26 18 12 45 -12 21 -41 24 -80 7z"/>
<path d="M224 3055 c-9 -22 9 -37 37 -33 16 2 24 10 24 23 0 26 -52 35 -61 10z"/>
<path d="M4781 1996 c-14 -17 1 -30 72 -63 115 -54 143 -63 163 -49 24 18 12
43 -28 61 -66 29 -165 65 -180 65 -9 0 -21 -6 -27 -14z"/>
<path d="M4377 1278 c-7 -20 19 -61 52 -83 17 -11 38 -34 48 -52 28 -53 72
-53 73 -1 0 18 -136 148 -155 148 -8 0 -15 -6 -18 -12z"/>
<path d="M2355 894 c-8 -9 -15 -30 -16 -47 0 -18 -2 -41 -4 -52 -2 -11 -7 -40
-10 -65 -3 -25 -15 -79 -26 -120 -11 -41 -18 -86 -16 -98 2 -13 -4 -64 -13
-114 -15 -77 -15 -91 -3 -104 19 -18 20 -18 33 6 10 18 21 68 35 160 3 19 7
46 10 60 3 14 7 41 10 60 3 19 10 60 15 90 5 30 12 82 15 115 3 33 8 72 9 87
4 32 -17 44 -39 22z"/>
<path d="M1661 844 c-12 -15 -21 -30 -21 -33 0 -4 -8 -16 -18 -27 -33 -35
-142 -204 -142 -219 0 -8 9 -19 20 -25 26 -14 44 5 100 105 24 44 58 102 77
129 33 48 40 86 17 93 -7 2 -21 -8 -33 -23z"/>
</g>
</svg>
